<?xml version="1.0" encoding="UTF-8"?>
<svg id="Layer_1" data-name="Layer 1" xmlns="http://www.w3.org/2000/svg" viewBox="0 0 1682.52 1730.01">
  <defs>
    <style>
      .cls-1 {
        fill: #232323;
      }

      .cls-1, .cls-2 {
        stroke-width: 0px;
      }

      .cls-2 {
        fill: #023e8a;
      }
    </style>
  </defs>
  <g>
    <path class="cls-1" d="M916.5,1106.84c185.96.04,340.27-138.75,355.89-313.23,16.63-185.65-105.48-349.87-284.34-382.07-31.96-5.75-64.19-7.7-96.63-4.1-7.02.78-14.13,2.11-21.16.33-10.91-2.76-18.6-13.54-18.04-24.89.59-12,8.67-21.17,21.66-23.12,29.52-4.44,59.41-5.16,88.84-1.3,167.99,22.01,284.44,111.91,340.15,271.87,82.96,238.23-81.45,494.36-331.99,522.84-215.3,24.47-407.5-121.36-442.06-335.75-7.33-45.45-5.86-90.99,2.24-136.27,3-16.78,15.14-25.81,29.92-23.07,14.25,2.64,21.6,15.59,18.55,32.73-35.58,200.43,96.83,383.85,298.25,412.83,15.31,2.2,30.88,2.58,38.73,3.2Z"/>
    <path class="cls-1" d="M779.07,138.92c13.75,0,23.77,8.09,25.78,19.88,2.23,13.07-4.71,24.77-18.2,28.39-22.67,6.07-45.43,11.91-67.16,20.81-227.2,93.04-357.06,261.6-377.29,506.08-23.28,281.46,158.76,532.17,431.32,606.25,16.56,4.5,24.29,12.55,23.96,25.64-.31,12.03-6.67,19.71-18,23.57-6.33,2.16-12.26.31-18.22-1.36-184.19-51.57-318.96-163.09-406.73-332.91-21.84-42.26-37.37-86.47-48.85-132.04-5.5-21.82-9.57-44.34-11.38-67.33-3.43-43.57-4.02-86.97-2.51-130.59,1.58-45.76,11.27-89.75,24.01-133.5,13.33-45.78,31.3-89.51,55.6-130.33,83.26-139.86,201.11-237.49,356.33-288.71,15.11-4.99,30.6-8.84,45.94-13.12,2.11-.59,4.38-.58,5.41-.71Z"/>
    <path class="cls-1" d="M1557.64,752.66c.07,298.44-201.54,553.22-486.44,619.52-12.3,2.86-23.07,2.05-30.72-9.05-6.48-9.39-6.03-19.08.45-28.5,5.27-7.66,13.59-9.35,21.78-11.36,96.06-23.57,181.88-67.28,254.38-134.61,135.33-125.67,200.52-281.87,189.5-466.09-15.45-258.47-184.34-463.15-433.57-532.33-18.03-5.01-26.41-16.79-22.35-31.44,4.14-14.95,16.96-20.93,35.07-16.37,237.75,59.91,425.91,266.62,463.54,508.98,5.45,35.1,8.64,70.32,8.37,101.25Z"/>
    <path class="cls-1" d="M922.65,497.46c69.68.16,131.47,50.42,144.88,117.84,14.02,70.49-22.34,140.13-87.18,167.68-7.14,3.03-11.03,3.01-13.68-5.24-2.83-8.79-10.44-17.56-9.55-25.62.91-8.28,13.81-8.6,21.09-13.08,42.38-26.05,62.15-77.24,47.52-124.45-15.14-48.85-60.14-79.77-111.4-76.57-48.37,3.02-90.16,40.02-98.93,87.6-9.21,49.96,16.55,100.11,63.23,119.42,12.45,5.15,11.84,9.68,7.08,19.7-11.65,24.54-11.24,24.74-35.03,11.61-59.91-33.05-89.6-101.44-72.69-167.45,16.77-65.45,76.66-111.6,144.66-111.44Z"/>
    <path class="cls-1" d="M800.2,412.05c-.41,13.63-9.37,19.89-20.53,24.96-60.78,27.56-109.57,69.39-146.93,124.59-5.94,8.78-11.06,18.12-16.69,27.12-8.14,13-22.05,17.14-34.14,10.3-12.02-6.8-16.12-21.26-8.65-34.67,44.34-79.61,108.1-138.19,191.59-174.86,17.86-7.84,35.79,4.22,35.36,22.57Z"/>
  </g>
  <g>
    <path class="cls-2" d="M166.47,759.1c0-25.22-1.85-50.61.51-75.61,2.45-25.96,9.94-51.4,13.51-77.31,6.53-47.36,26.23-90.46,41.37-135.08,12.04-35.48,30.36-68.06,49.17-99.71,31.22-52.53,69.07-100.62,111.97-144.63,30.3-31.08,62.71-60.07,97.78-84.87,47.14-33.34,97.18-62.87,151.66-83.61,7.43-2.83,14.65-6,21.06-10.94,10.41-8.03,23.77-6.26,35.58-10.09C781.85,7.18,877.16-4.9,974.44,1.8c88.86,6.12,174.19,27.08,255.79,63.52,135.44,60.49,244.12,152.4,326.5,275.5,45.12,67.43,77.71,140.64,98.95,218.93,27.82,102.55,34.32,206.5,18.09,311.43-19.8,128.04-68.78,244.01-147.45,347.27-65.25,85.64-145.18,154.08-239.41,206.03-46.2,25.47-94.89,44.75-145.1,60.68-36.42,11.56-73.85,17.79-111.33,24.4-46.61,8.22-93.46,7.13-140.41,6.81-44.64-.31-88.9-6.18-131.79-16.56-37.16-9-74.02-20.66-110.14-34.42-61.63-23.47-117.46-57.02-171.7-93.47-20.79-13.97-39.11-31.68-58.17-48.13-5.05-4.36-7.79-5.03-12.56.44-29.4,33.73-59.07,67.22-88.9,100.56-4.25,4.75-4.34,8.37-1.71,14.04,13.11,28.24,9.22,53.3-12.29,76.93-56.03,61.57-113.29,122.21-165.9,186.63-42.29,51.78-110.69,23.35-131.07-24.75-11.92-28.12-4.8-49.62,13.86-70.43,57.9-64.58,115.9-129.07,173.39-194.03,18.6-21.02,40.93-27.06,67.05-20.01,8.22,2.22,12.78.52,18.13-5.62,35.16-40.32,70.69-80.32,106.12-120.4,17.85-20.19,29.89-20.68,49.91-1.71,114.01,107.98,248.64,174.23,404.6,191.93,217.63,24.7,409.35-37.21,568.64-187.92,147.76-139.8,224.8-314.35,219.75-517.82-6.99-281.93-138.49-493.81-389.53-622.01C935.06-24.97,576.76,59.92,366.9,327.38c-43.18,55.03-77.12,115.55-101.94,180.85-39.51,103.93-53.16,211.59-42.75,322.24,1.48,15.76,4.67,31.37,7.1,47.04,2.68,17.26-5.43,30.8-20.12,33.49-17.58,3.22-28.33-5.43-33.02-23.71-10.82-42.19-9.85-85.24-9.7-128.18Z"/>
    <path class="cls-2" d="M933.95,236.09c153.87,3.95,288.22,66.75,392.9,191.69,13.55,16.17,12.33,33.61-2.47,42.14-11.69,6.74-23.93,3.74-34.8-9.46-32.05-38.96-68.82-72.56-111.29-99.92-236.85-152.55-555.47-62.63-677.77,191.34-137.3,285.12,40.39,622.32,353.2,669.33,101.2,15.21,197.66-1.44,288.68-48.49,8.87-4.58,17.46-8.92,27.64-4.41,8.8,3.9,14.23,10.31,15.13,20.12,1.05,11.51-4.13,19.72-13.91,25.07-19.83,10.86-40.4,20.18-61.5,28.3-311.03,119.75-656.19-84.47-700.92-414.69-38.43-283.7,159.15-545.38,442.28-585.67,24.59-3.5,49.36-4.9,82.82-5.36Z"/>
    <path class="cls-2" d="M1443.68,775.86c-2.24,122.09-50.98,242.56-147.63,343.39-13.48,14.06-28.25,15.66-39.45,4.54-10.93-10.84-9.52-24.66,3.38-38.58,125.08-134.98,162.13-291.28,113.26-468.34-.47-1.71-1.18-3.35-1.6-5.06-3.77-15.32,2.39-28.05,15.58-32.3,13.54-4.36,26.85,2.9,31.82,18.24,16.92,52.22,24.84,105.87,24.66,178.11Z"/>
    <path class="cls-2" d="M873.92,1058.86c-34.12-4.57-65.47-14.64-95.41-29.12-37.46-18.11-70.41-42.45-98.64-73.09-3.56-3.86-7.65-7.12-5.9-13.65,6.26-23.46,9.07-47.9,20.06-70,10.93-21.98,25.58-39.78,49.16-49.79,20.74-8.8,40.64-19.62,60.79-29.76,5.7-2.87,9.51-4.93,9.33,4.68-1.72,89.84,18.6,174.63,59.07,254.72.73,1.45.84,3.21,1.54,6.01Z"/>
    <path class="cls-2" d="M972.47,1059.54c44.3-85.46,64.71-174.24,62.82-267.66,5.53-1.65,8.62,1.51,12.07,3.19,17.1,8.36,33.6,18.26,51.3,25.06,36.28,13.95,54.3,42.29,64.67,77.29,3.26,11.02,4.6,22.64,8.31,33.47,4.12,12.04,1.07,20.29-7.72,29.31-52.08,53.48-114.53,86.62-191.45,99.32Z"/>
    <path class="cls-2" d="M921.03,750.37c28.91.02,28.75.08,39.92,29.86,2.59,6.89,3.21,11.23-6.14,9.91-9.93-1.4-10.43,4.06-9.81,11.87,4.76,60.49,9.1,121.01,13.94,181.49.64,8.01-.75,14.44-5.74,20.86-8.95,11.54-17.47,23.45-25.53,35.63-4.79,7.23-7.64,6.27-12.01-.31-7.59-11.43-15.4-22.79-24.03-33.43-6.39-7.88-7.77-15.99-6.85-25.78,5.54-59.09,10.45-118.23,16.04-177.31.89-9.36-.19-14.64-11.16-13.01-5.56.82-7.37-1.73-4.85-6.98,1.54-3.19,3.43-6.3,4.37-9.67,5.04-17.93,14.13-29.43,31.85-23.12Z"/>
    <path class="cls-2" d="M993.16,614.08c.03,3.86-1.58,6.93-4.96,8.73-4.34,2.31-8.54,1.78-12.2-1.6-6.15-5.68-11.81-12-18.44-17.04-27.01-20.53-53.01-18.52-77.03,5.46-1.25,1.25-2.48,2.52-3.69,3.8-5.83,6.13-11.44,17-21.03,7.51-9.25-9.15,1.28-16.1,6.8-22.05,45.71-49.26,95.2-29.04,126.8,6.96,2.05,2.34,3.77,4.92,3.76,8.25Z"/>
  </g>
</svg>